<svg width="1920" height="1080" viewBox="0 0 1920 1080" xmlns="http://www.w3.org/2000/svg"><rect width="1920" height="1080" fill="#18192f"/><path d="M 0,1080 C 0,1080 0,216 0,216 C 27.937013901510568,229.85667325691043 55.874027803021136,243.71334651382085 69,256 C 82.12597219697886,268.28665348617915 80.44090268942604,279.00328720162696 92,264 C 103.55909731057396,248.99671279837304 128.36236143927462,208.27350467967116 158,181 C 187.63763856072538,153.72649532032884 222.10965155347543,139.9026940796885 241,137 C 259.89034844652457,134.0973059203115 263.1990323468236,142.11571900157492 278,180 C 292.8009676531764,217.88428099842508 319.0942190592299,285.63442991401183 353,278 C 386.9057809407701,270.36557008598817 428.42409141625666,187.3465613423776 459,177 C 489.57590858374334,166.6534386576224 509.2094152757437,228.9793247164776 518,257 C 526.7905847242563,285.0206752835224 524.7382474807687,278.73613979171205 552,286 C 579.2617525192313,293.26386020828795 635.8375948011819,314.07611611667426 667,295 C 698.1624051988181,275.92388388332574 703.9113733145035,216.95939574159095 712,193 C 720.0886266854965,169.04060425840905 730.5169119408043,180.08630091696193 751,172 C 771.4830880591957,163.91369908303807 802.0209789222796,136.6954005905614 820,148 C 837.9790210777204,159.3045994094386 843.399172370078,209.13209672079245 873,240 C 902.600827629922,270.86790327920755 956.3823315974088,282.7762125262688 970,272 C 983.6176684025912,261.2237874737312 957.0715012402868,227.7630531741324 978,194 C 998.9284987597132,160.2369468258676 1067.3316634414443,126.17157477720147 1100,153 C 1132.6683365585557,179.82842522279853 1129.6018449939365,267.55064771706157 1139,265 C 1148.3981550060635,262.44935228293843 1170.2609565828086,169.62583435455235 1187,148 C 1203.7390434171914,126.37416564544763 1215.3543286748293,175.94601486472897 1256,200 C 1296.6456713251707,224.05398513527103 1366.3217287178738,222.59010618653173 1387,220 C 1407.6782712821262,217.40989381346827 1379.3587564536747,213.69356038914407 1374,227 C 1368.6412435463253,240.30643961085593 1386.243245467427,270.63565225689194 1420,260 C 1453.756754532573,249.36434774310806 1503.6682616766177,197.76383058328818 1524,195 C 1544.3317383233823,192.23616941671182 1535.0837078261025,238.30902540995538 1565,257 C 1594.9162921738975,275.6909745900446 1663.9969070189723,267.0000677768904 1699,263 C 1734.0030929810277,258.9999322231096 1734.928664098007,259.69070348248295 1748,241 C 1761.071335901993,222.30929651751703 1786.2884365889984,184.23711829317767 1803,197 C 1819.7115634110016,209.76288170682233 1827.9175895460003,273.36082334480636 1846,285 C 1864.0824104539997,296.63917665519364 1892.0412052269999,256.3195883275968 1920,216 C 1920,216 1920,1080 1920,1080 Z" fill="#736bb3" opacity="0.12"/><path d="M 0,1080 C 0,1080 0,432 0,432 C -8.357468749204628,465.0883205049018 -16.714937498409256,498.1766410098036 13,509 C 42.714937498409256,519.8233589901964 110.5022812444324,508.38175646568754 155,494 C 199.4977187555676,479.61824353431246 220.70581252067961,462.2963331274461 246,435 C 271.2941874793204,407.7036668725539 300.67446867284906,370.4329110245279 304,352 C 307.32553132715094,333.5670889754721 284.59631278792415,333.97202277444217 290,360 C 295.40368721207585,386.02797722555783 328.9402801754543,437.67899787770347 353,455 C 377.0597198245457,472.32100212229653 391.6425665102586,455.31198571474414 416,449 C 440.3574334897414,442.68801428525586 474.48945378351107,447.0730592633198 502,435 C 529.5105462164889,422.9269407366802 550.3996183556967,394.3957772319766 587,400 C 623.6003816443033,405.6042227680234 675.9120727937022,445.343831808774 689,432 C 702.0879272062978,418.656168191226 675.9520904694939,352.22889553292754 687,355 C 698.0479095305061,357.77110446707246 746.279565328322,429.74058605951575 793,439 C 839.720434671678,448.25941394048425 884.9296482172184,394.8087602290096 884,389 C 883.0703517827816,383.1912397709904 836.0018418028045,425.024373024446 857,425 C 877.9981581971955,424.975626975554 967.062984571563,383.0937476732063 1013,380 C 1058.937015428437,376.9062523267937 1061.7462199109434,412.60063628272906 1069,431 C 1076.2537800890566,449.39936371727094 1087.9521357846636,450.50370719587755 1110,431 C 1132.0478642153364,411.49629280412245 1164.4452369504013,371.38453493376073 1173,376 C 1181.5547630495987,380.61546506623927 1166.2669164137308,429.9581530690793 1179,424 C 1191.7330835862692,418.0418469309207 1232.4870973946754,356.7828527899221 1267,366 C 1301.5129026053246,375.2171472100779 1329.784694007568,454.9104357712322 1356,488 C 1382.215305992432,521.0895642287678 1406.3741265750518,507.5754041251491 1439,481 C 1471.6258734249482,454.4245958748509 1512.7187996922244,414.7879477281713 1530,403 C 1547.2812003077756,391.2120522718287 1540.75067465605,407.2728049621659 1539,428 C 1537.24932534395,448.7271950378341 1540.2785016835749,474.12083242316504 1561,475 C 1581.7214983164251,475.87916757683496 1620.1353186096496,452.24386534517396 1646,421 C 1671.8646813903504,389.75613465482604 1685.180223877826,350.9037061961389 1724,368 C 1762.819776122174,385.0962938038611 1827.1437858790468,458.1413098702703 1850,479 C 1872.8562141209532,499.8586901297297 1854.2446326059865,468.5310543227799 1859,452 C 1863.7553673940135,435.4689456772201 1891.877683697007,433.73447283861003 1920,432 C 1920,432 1920,1080 1920,1080 Z" fill="#736bb3" opacity="0.24"/><path d="M 0,1080 C 0,1080 0,648 0,648 C 13.770907915592453,677.9427669636048 27.541815831184906,707.8855339272095 53,720 C 78.4581841688151,732.1144660727905 115.60364459085284,726.4006312547668 130,717 C 144.39635540914716,707.5993687452332 136.0436058054037,694.5119410537234 154,698 C 171.9563941945963,701.4880589462766 216.22193218753233,721.5516045303398 259,720 C 301.77806781246767,718.4483954696602 343.068665444467,695.2816408249172 360,670 C 376.931334555533,644.7183591750828 369.50340603459944,617.3218321699912 383,630 C 396.49659396540056,642.6781678300088 430.91771041713537,695.4310304951179 454,713 C 477.08228958286463,730.5689695048821 488.8257522968594,712.9540458495378 517,684 C 545.1742477031406,655.0459541504622 589.779280395427,614.752786106731 609,598 C 628.220719604573,581.247213893269 622.0571261214325,588.034809723538 641,591 C 659.9428738785675,593.965190276462 703.9922151188432,593.1079749991169 709,590 C 714.0077848811568,586.8920250008831 679.9740134031948,581.5332902799942 716,582 C 752.0259865968052,582.4667097200058 858.1117312683779,588.7588638809063 887,588 C 915.8882687316221,587.2411361190937 867.5790615232942,579.4312541963806 885,595 C 902.4209384767058,610.5687458036194 985.5720226384456,649.516119333571 1001,663 C 1016.4279773615544,676.483880666429 964.1328479229236,664.5042684693349 987,640 C 1009.8671520770764,615.4957315306651 1107.8965856698596,578.4668067890893 1140,583 C 1172.1034143301404,587.5331932109107 1138.2808093976382,633.6285043743076 1150,641 C 1161.7191906023618,648.3714956256924 1218.9801767395866,617.01917571368 1250,617 C 1281.0198232604134,616.98082428632 1285.7984836440157,648.294792770972 1302,641 C 1318.2015163559843,633.705207229028 1345.8258886843503,587.8016532024316 1368,609 C 1390.1741113156497,630.1983467975684 1406.8979616185825,718.4985944193012 1434,726 C 1461.1020383814175,733.5014055806988 1498.582264841319,660.2039691203637 1504,662 C 1509.417735158681,663.7960308796363 1482.77297901614,740.6855290992441 1492,727 C 1501.22702098386,713.3144709007559 1546.325819094121,609.0539144826599 1571,577 C 1595.674180905879,544.9460855173401 1599.9237446073762,585.0988129701159 1615,612 C 1630.0762553926238,638.9011870298841 1655.9792024763735,652.5508336368761 1684,654 C 1712.0207975236265,655.4491663631239 1742.15944548713,644.6978524823795 1781,662 C 1819.84055451287,679.3021475176205 1867.3830155751057,724.6577564336059 1892,727 C 1916.6169844248943,729.3422435663941 1918.3084922124472,688.6711217831971 1920,648 C 1920,648 1920,1080 1920,1080 Z" fill="#736bb3" opacity="0.36"/><path d="M 0,1080 C 0,1080 0,864 0,864 C 28.913901426777556,878.6808717637557 57.82780285355511,893.3617435275113 89,873 C 120.17219714644489,852.6382564724887 153.60269001255708,797.2338976537102 184,794 C 214.39730998744292,790.7661023462898 241.76143709621644,839.7026658576476 242,862 C 242.23856290378356,884.2973341423524 215.35156160257725,879.9554389156997 214,891 C 212.64843839742275,902.0445610843003 236.83231649347448,928.4755784795537 274,907 C 311.1676835065255,885.5244215204463 361.31917242352495,816.1422471660852 383,798 C 404.68082757647505,779.8577528339148 397.89099381242556,812.9554328561055 411,830 C 424.10900618757444,847.0445671438945 457.1168523267729,848.0360214094932 503,853 C 548.8831476732271,857.9639785905068 607.6415968804827,866.9004815059214 612,874 C 616.3584031195173,881.0995184940786 566.3167601512966,886.3620525668209 580,866 C 593.6832398487034,845.6379474331791 671.0913625143309,799.6513082267948 714,825 C 756.9086374856691,850.3486917732052 765.3177897913804,947.032714526 780,937 C 794.6822102086196,926.967285474 815.6374783201475,810.2178336692054 822,799 C 828.3625216798525,787.7821663307946 820.13229692803,882.0959507971784 836,902 C 851.86770307197,921.9040492028216 891.8333339677318,867.3983631420804 933,857 C 974.1666660322682,846.6016368579196 1016.5343672010422,880.3105966344999 1042,879 C 1067.4656327989578,877.6894033655001 1076.0291972280995,841.3592503199203 1089,860 C 1101.9708027719005,878.6407496800797 1119.3488438865593,952.2524020858185 1134,934 C 1148.6511561134407,915.7475979141815 1160.5754272256638,805.6311413368052 1191,802 C 1221.4245727743362,798.3688586631948 1270.3494472107852,901.2230325669606 1298,899 C 1325.6505527892148,896.7769674330394 1332.026783931196,789.476728395352 1350,792 C 1367.973216068804,794.523271604648 1397.5434170644303,906.8700538516313 1423,918 C 1448.4565829355697,929.1299461483687 1469.7995478110827,839.0430561981227 1493,813 C 1516.2004521889173,786.9569438018773 1541.258391691239,824.9577213558777 1571,843 C 1600.741608308761,861.0422786441223 1635.166885423961,859.1260583783659 1633,871 C 1630.833114576039,882.8739416216341 1592.0740666129163,908.5380451306589 1621,918 C 1649.9259333870837,927.4619548693411 1746.536848124373,920.7217610989985 1778,909 C 1809.463151875627,897.2782389010015 1775.778540889592,880.5749104733463 1788,876 C 1800.221459110408,871.4250895266537 1858.3489883172592,878.9785970076152 1888,879 C 1917.6510116827408,879.0214029923848 1918.8255058413704,871.5107014961924 1920,864 C 1920,864 1920,1080 1920,1080 Z" fill="#736bb3" opacity="0.48"/></svg>